<?xml version="1.0" standalone="no"?>
<!DOCTYPE svg PUBLIC "-//W3C//DTD SVG 20010904//EN"
 "http://www.w3.org/TR/2001/REC-SVG-20010904/DTD/svg10.dtd">
<svg version="1.0" xmlns="http://www.w3.org/2000/svg"
 width="1563.000000pt" height="1563.000000pt" viewBox="0 0 1563.000000 1563.000000"
 preserveAspectRatio="xMidYMid meet">

<g transform="translate(0.000000,1563.000000) scale(0.100000,-0.100000)"
fill="#000000" stroke="none">
<path d="M0 7815 l0 -7815 7815 0 7815 0 0 7815 0 7815 -7815 0 -7815 0 0
-7815z m5305 6714 c694 -93 1280 -644 1425 -1340 49 -237 43 -539 -15 -769
-102 -405 -366 -776 -723 -1013 -150 -99 -403 -204 -582 -241 -278 -58 -597
-41 -870 46 -557 177 -993 641 -1134 1206 -41 164 -50 240 -50 417 0 290 46
492 170 750 264 552 820 924 1434 959 82 4 254 -3 345 -15z m6170 0 c546 -73
1033 -427 1288 -935 162 -323 216 -744 141 -1104 -94 -453 -392 -873 -789
-1112 -313 -188 -667 -271 -1022 -240 -168 15 -256 32 -393 79 -268 90 -476
218 -671 412 -266 267 -432 597 -489 971 -16 106 -14 388 4 495 59 369 219
686 475 943 387 390 905 564 1456 491z m-6508 -4549 c214 -56 398 -160 568
-322 128 -121 200 -228 320 -473 150 -306 266 -468 476 -669 820 -786 2116
-790 2939 -10 203 193 339 381 466 644 144 296 170 336 313 483 154 158 353
278 566 343 87 27 99 28 375 32 480 6 568 -13 995 -222 699 -341 1298 -846
1753 -1477 391 -544 662 -1164 796 -1824 100 -490 122 -1051 60 -1535 -115
-913 -485 -1755 -1085 -2475 -121 -145 -423 -444 -579 -573 -344 -286 -780
-554 -1173 -722 -201 -86 -234 -92 -495 -97 -309 -6 -414 13 -622 116 -120 59
-187 103 -281 186 -201 177 -336 401 -404 669 -23 90 -25 117 -25 315 0 234 9
293 66 451 110 307 359 578 662 721 153 72 245 120 332 172 665 400 1074 1180
1020 1946 -35 495 -209 925 -518 1279 l-55 62 -36 -42 c-395 -467 -946 -895
-1496 -1163 -514 -250 -990 -388 -1595 -462 -208 -26 -802 -26 -1010 0 -584
71 -1038 200 -1534 435 -348 164 -693 386 -1006 646 -157 131 -416 385 -520
510 l-65 78 -50 -57 c-335 -380 -537 -957 -511 -1460 17 -332 79 -579 216
-860 174 -358 421 -639 752 -855 115 -76 182 -112 389 -208 59 -27 135 -69
169 -92 267 -181 464 -467 540 -782 17 -70 20 -118 20 -299 0 -195 -2 -226
-24 -311 -128 -503 -524 -875 -1035 -972 -111 -21 -356 -21 -469 0 -211 39
-578 206 -932 423 -567 348 -1065 827 -1439 1384 -221 328 -401 690 -542 1089
-237 672 -317 1468 -218 2193 55 405 170 827 324 1195 387 920 1055 1694 1912
2217 163 99 516 279 645 329 183 70 199 72 580 73 l347 1 118 -30z"/>
</g>
</svg>
